<svg width="110" height="110" viewBox="0 0 110 110" fill="none" xmlns="http://www.w3.org/2000/svg">
<path d="M95.7225 45.0431C107.2 33.5687 110.074 16.3142 101.876 8.12433C93.6806 -0.0741096 76.4329 2.79964 64.9568 14.274C55.5415 23.6945 53.4223 35.8546 59.1354 44.7114L56.107 47.7398C55.5708 48.2793 55.186 48.9503 54.9911 49.6855C54.7962 50.4207 54.7982 51.1942 54.9967 51.9284L34.3442 72.574L25.5012 78.3473C25.5012 78.3473 17.8064 86.0387 8.57839 95.2701C7.74308 96.102 4.39495 97.4254 4.39495 97.4254C3.31042 97.9324 3.1162 99.0393 3.96183 99.8832L10.115 106.036C10.9606 106.882 12.0657 106.691 12.5728 105.607C12.5728 105.607 13.8962 102.257 14.7281 101.423L31.6543 84.5004L37.4207 75.6557L58.0732 55.0032C58.8072 55.202 59.5805 55.204 60.3154 55.0091C61.0504 54.8142 61.7211 54.4292 62.2601 53.8929L65.2886 50.8662C74.1487 56.581 86.3071 54.4635 95.7225 45.0431ZM68.8343 16.6115L71.1134 18.8889L68.0351 21.9671L65.8626 19.7929C66.5346 18.9628 67.2428 18.1429 68.0351 17.3506C68.2929 17.0945 68.5696 16.8607 68.8343 16.6115ZM87.7492 7.83558L89.571 9.65745L86.4945 12.7357L83.4162 9.65745L84.8823 8.1948C85.8299 8.01784 86.7872 7.89788 87.7492 7.83558ZM80.3448 28.1203L77.2665 31.1951L74.1882 28.1168L77.2631 25.0454L80.3448 28.1203ZM78.8048 23.5054L81.8831 20.4271L84.9545 23.5054L81.8831 26.5837L78.8048 23.5054ZM75.73 32.7334L72.6517 35.8117L69.5734 32.7368L72.6517 29.6585L75.73 32.7334ZM75.73 41.9648L72.6517 45.0396L69.5734 41.9682L72.6517 38.8865L75.73 41.9648ZM74.1882 37.3482L77.2665 34.2734L80.3448 37.3482L77.2665 40.4231L74.1882 37.3482ZM81.8831 38.8865L84.9545 41.9682L81.8796 45.0431L78.8014 41.9682L81.8831 38.8865ZM81.8796 35.8117L78.8048 32.7334L81.8831 29.6585L84.9545 32.7368L81.8796 35.8117ZM83.4162 28.1203L86.4945 25.0454L89.5693 28.1203L86.4945 31.1951L83.4162 28.1203ZM88.0328 23.5054L91.111 20.4271L94.1859 23.5054L91.111 26.5837L88.0328 23.5054ZM95.7259 25.042L98.8007 28.1203L95.7259 31.1951L92.651 28.1168L95.7259 25.042ZM97.2642 23.5054L100.342 20.4271L102.166 22.2507C102.104 23.2139 101.983 24.1725 101.805 25.121L100.342 26.5837L97.2642 23.5054ZM95.7259 21.9671L92.651 18.8854L95.7259 15.8106L98.8007 18.8854L95.7259 21.9671ZM91.111 17.3523L88.0328 14.274L91.111 11.1957L94.1859 14.274L91.111 17.3523ZM89.5693 18.8889L86.4945 21.9671L83.4162 18.8889L86.4945 15.814L89.5693 18.8889ZM81.8831 17.3523L78.8048 14.274L81.8831 11.1992L84.9545 14.274L81.8831 17.3523ZM80.3448 18.8889L77.2665 21.9671L74.1882 18.8854L77.2665 15.8106L80.3448 18.8889ZM75.73 23.5054L72.6517 26.5803L69.5768 23.5054L72.6517 20.4271L75.73 23.5054ZM71.1134 28.1203L68.0351 31.1951L64.9568 28.1203L68.0351 25.0454L71.1134 28.1203ZM66.4968 32.7334L63.422 35.8082L60.4245 32.8159L60.4348 32.6475L63.422 29.6585L66.4968 32.7334ZM68.0351 34.2734L71.1134 37.3482L68.0351 40.4265L64.9568 37.3482L68.0351 34.2734ZM71.1134 46.5814L69.4892 48.2056C68.1396 47.5771 66.8881 46.7568 65.7732 45.7701L68.0351 43.5065L71.1134 46.5814ZM72.6517 48.1214L74.0112 49.4775C73.2488 49.3786 72.4946 49.2247 71.7545 49.0168L72.6517 48.1214ZM77.1857 49.5789L74.1882 46.5814L77.2665 43.5031L80.3448 46.5814L77.3576 49.5685L77.1857 49.5789ZM81.8831 48.1179L82.33 48.5648C81.9071 48.7075 81.4826 48.8295 81.0581 48.9446L81.8831 48.1179ZM83.4196 46.5814L86.4945 43.5065L88.4487 45.4573C87.1648 46.3425 85.8534 47.0867 84.5282 47.6917L83.4196 46.5814ZM83.4196 37.3482L86.4945 34.2734L89.5693 37.3482L86.4945 40.4265L83.4196 37.3482ZM88.0362 32.7334L91.111 29.6585L94.1893 32.7334L91.111 35.8117L88.0362 32.7334ZM95.7259 34.2734L97.4257 35.9732C96.6523 37.1987 95.7792 38.3864 94.8339 39.5328L92.6493 37.3482L95.7259 34.2734ZM97.2607 32.7368L100.342 29.6585L100.49 29.8064C99.9626 31.226 99.3215 32.644 98.5653 34.0379L97.2607 32.7368ZM101.876 18.8889L102.097 18.6689C102.116 18.8407 102.151 19.004 102.166 19.1776L101.876 18.8889ZM100.342 17.3523L97.2642 14.274L99.5071 12.0293C100.449 13.2015 101.142 14.5731 101.589 16.1062L100.342 17.3523ZM95.7259 12.7357L92.651 9.65745L93.8971 8.41136C95.4286 8.85823 96.8001 9.55089 97.9706 10.491L95.7259 12.7357ZM91.111 8.12089L90.824 7.83386C90.9976 7.84761 91.1592 7.8837 91.3293 7.90433L91.111 8.12089ZM80.3448 9.65745L77.2665 12.7357L75.9654 11.4346C77.3576 10.6784 78.7773 10.0373 80.197 9.50792L80.3448 9.65745ZM75.73 14.274L72.6517 17.3523L70.4671 15.1678C71.5976 14.228 72.7871 13.3617 74.0284 12.5742L75.73 14.274ZM66.4968 23.5054L63.422 26.5837L62.3117 25.4734C62.9167 24.1482 63.6592 22.8351 64.5461 21.5512L66.4968 23.5054ZM61.882 28.1203L61.0587 28.9435C61.1704 28.519 61.2942 28.0979 61.4368 27.6734L61.882 28.1203ZM61.882 37.3482L60.9865 38.2454C60.7793 37.5063 60.6254 36.7533 60.5259 35.9921L61.882 37.3482ZM63.422 38.8865L66.4968 41.9648L64.235 44.2318C63.2472 43.1165 62.4257 41.8644 61.796 40.5142L63.422 38.8865ZM90.2104 44.139L88.0345 41.9648L91.1093 38.8865L93.3884 41.169C93.1409 41.4337 92.9089 41.707 92.6493 41.9648C91.8587 42.7571 91.0406 43.467 90.2104 44.139ZM67.6226 67.6223C66.0343 69.2121 65.1421 71.3675 65.1421 73.6147C65.1421 75.862 66.0343 78.0173 67.6226 79.6071L79.604 67.6223C78.0148 66.0342 75.86 65.1421 73.6133 65.1421C71.3666 65.1421 69.2118 66.0342 67.6226 67.6223ZM85.5956 73.6104L82.6015 70.6198L70.6167 82.6012L73.6107 85.5953L82.5981 106.562L85.5956 103.568L83.7995 99.3779L86.797 96.3804L89.339 99.8248L92.3365 96.8273L89.7928 93.3864L92.7903 90.3889L96.08 93.0839L99.074 90.0898L95.7843 87.3948L99.38 83.7992L103.57 85.5953L106.563 82.6012L85.5956 73.6104ZM86.797 78.4075L85.8946 79.3098L82.5981 76.6079L86.797 78.4075ZM78.4078 86.8001L76.6082 82.6012L79.1554 86.049L78.4078 86.8001ZM82.8989 82.3056L82.1495 83.055L79.6023 79.6037L82.8989 82.3056ZM82 95.1825L80.2073 90.9956L81.7043 89.4985L84.2464 92.936L82 95.1825ZM87.2439 89.9385L84.7018 86.501L86.2023 85.0006L89.4886 87.6921L87.2439 89.9385ZM92.4843 84.6981L89.1981 82.0065L90.9976 80.207L95.181 81.9996L92.4843 84.6981Z" fill="white"/>
</svg>
