<svg width="322" height="224" viewBox="0 0 322 224" fill="none" xmlns="http://www.w3.org/2000/svg">
<ellipse cx="177.891" cy="4.04888" rx="4.15608" ry="3.20318" fill="#165BAA"/>
<ellipse cx="98.0943" cy="91.1758" rx="4.15608" ry="3.20318" fill="#165BAA"/>
<ellipse cx="154.617" cy="143.707" rx="4.15608" ry="3.20318" fill="#165BAA"/>
<ellipse cx="126.356" cy="220.584" rx="4.15608" ry="3.20318" fill="#165BAA"/>
<ellipse cx="191.191" cy="160.364" rx="4.15608" ry="3.20318" fill="#165BAA"/>
<ellipse cx="254.363" cy="152.677" rx="4.15608" ry="3.20318" fill="#165BAA"/>
<ellipse cx="202.827" cy="123.207" rx="4.15608" ry="3.20318" fill="#165BAA"/>
<ellipse cx="41.5716" cy="164.208" rx="4.15608" ry="3.20318" fill="#A155B9"/>
<ellipse cx="146.305" cy="188.552" rx="4.15608" ry="3.20318" fill="#A155B9"/>
<ellipse cx="226.102" cy="214.178" rx="4.15608" ry="3.20318" fill="#A155B9"/>
<ellipse cx="231.089" cy="106.551" rx="4.15608" ry="3.20318" fill="#A155B9"/>
<ellipse cx="177.891" cy="32.2364" rx="4.15608" ry="3.20318" fill="#F765A3"/>
<ellipse cx="289.274" cy="71.9561" rx="4.15608" ry="3.20318" fill="#F765A3"/>
<ellipse cx="282.624" cy="157.802" rx="4.15608" ry="3.20318" fill="#F765A3"/>
<ellipse cx="207.815" cy="187.271" rx="4.15608" ry="3.20318" fill="#F765A3"/>
<ellipse cx="211.14" cy="146.27" rx="4.15608" ry="3.20318" fill="#A155B9"/>
<ellipse cx="177.891" cy="87.3311" rx="4.15608" ry="3.20318" fill="#A155B9"/>
<ellipse cx="123.031" cy="106.551" rx="4.15608" ry="3.20318" fill="#A155B9"/>
<ellipse cx="207.815" cy="187.271" rx="4.15608" ry="3.20318" fill="#F765A3"/>
<ellipse cx="144.642" cy="144.988" rx="4.15608" ry="3.20318" fill="#F765A3"/>
<ellipse cx="66.5081" cy="71.9561" rx="4.15608" ry="3.20318" fill="#F765A3"/>
<ellipse cx="162.929" cy="164.208" rx="4.15608" ry="3.20318" fill="#F765A3"/>
<path opacity="0.6" d="M177.891 32.2373L66.5081 71.9567L144.642 144.989L162.929 164.208L207.815 187.271L282.624 157.802L289.274 71.9567L177.891 32.2373Z" fill="#FFA5CB" stroke="#F765A3" stroke-width="2"/>
<ellipse cx="66.5081" cy="71.9561" rx="4.15608" ry="3.20318" fill="#16BFD6"/>
<ellipse cx="4.99812" cy="169.333" rx="4.15608" ry="3.20318" fill="#16BFD6"/>
<ellipse cx="162.929" cy="164.208" rx="4.15608" ry="3.20318" fill="#16BFD6"/>
<ellipse cx="211.14" cy="147.551" rx="4.15608" ry="3.20318" fill="#16BFD6"/>
<ellipse cx="317.535" cy="55.2999" rx="4.15608" ry="3.20318" fill="#16BFD6"/>
<ellipse cx="177.891" cy="57.8624" rx="4.15608" ry="3.20318" fill="#16BFD6"/>
<path opacity="0.6" d="M4.99805 169.333L66.508 71.9563L177.891 57.8623L317.535 55.2998L211.14 146.911L162.929 164.208L4.99805 169.333Z" fill="#82F0FF" stroke="#16BFD6" stroke-width="2"/>
</svg>
