<svg width="358" height="288" viewBox="0 0 358 288" fill="none" xmlns="http://www.w3.org/2000/svg">
<path d="M39.5773 52.368L178.891 0.660282L318.205 52.368L352.556 168.364L256.229 261.46H101.553L5.22588 168.364L39.5773 52.368Z" stroke="#BDBDBD"/>
<path d="M68.1716 69.9424L178.891 28.8478L289.611 69.9424L316.9 162.091L240.36 236.063H117.422L40.8824 162.091L68.1716 69.9424Z" stroke="#BDBDBD"/>
<path d="M94.1666 85.9202L178.891 54.4738L263.616 85.9202L284.485 156.39L225.934 212.976H131.848L73.2976 156.39L94.1666 85.9202Z" stroke="#BDBDBD"/>
<path d="M124.061 104.293L178.891 83.9425L233.722 104.293L247.208 149.832L209.344 186.425H148.438L110.575 149.832L124.061 104.293Z" stroke="#BDBDBD"/>
<path d="M151.355 121.07L178.891 110.85L206.427 121.07L213.172 143.845L194.197 162.183H163.585L144.611 143.845L151.355 121.07Z" stroke="#BDBDBD"/>
<path d="M5.99829 167.974L178.891 137.864L316.873 52.6592" stroke="#BDBDBD"/>
<path d="M256.726 261.663L180.213 138.435L41.7613 53.6839" stroke="#BDBDBD"/>
<path d="M180.17 1.29987L179.613 137.911L101.693 260.233" stroke="#BDBDBD"/>
<path d="M179.722 138.504L351.784 168.614" stroke="#BDBDBD"/>
</svg>
