<svg width="89" height="53" viewBox="0 0 89 53" fill="none" xmlns="http://www.w3.org/2000/svg">
<g filter="url(#filter0_d_55_343)">
<rect x="6.19214" y="2.55762" width="76.7342" height="40.8709" rx="6" fill="#0075FF"/>
</g>
<path d="M32.5349 16.9239H56.5143C56.7944 16.9238 57.0742 16.9332 57.3521 16.9522C57.2579 16.6001 57.0308 16.2617 56.6845 15.9576C56.3382 15.6535 55.8799 15.3899 55.3371 15.1827C54.7944 14.9755 54.1785 14.8289 53.5266 14.7519C52.8746 14.6749 52.2001 14.669 51.5438 14.7346L31.823 16.5279H31.8005C30.5626 16.654 29.4618 17.027 28.7229 17.5708C29.8361 17.1491 31.1688 16.9229 32.5349 16.9239Z" fill="white"/>
<path d="M56.5146 17.8848H32.5351C31.2636 17.8855 30.0446 18.1549 29.1455 18.6338C28.2464 19.1126 27.7406 19.7619 27.7393 20.4392V28.1025C27.7406 28.7797 28.2464 29.429 29.1455 29.9079C30.0446 30.3868 31.2636 30.6562 32.5351 30.6569H56.5146C57.7861 30.6562 59.0051 30.3868 59.9042 29.9079C60.8033 29.429 61.3091 28.7797 61.3105 28.1025V20.4392C61.3091 19.7619 60.8033 19.1126 59.9042 18.6338C59.0051 18.1549 57.7861 17.8855 56.5146 17.8848ZM52.9551 25.5481C52.4809 25.5481 52.0172 25.4732 51.6229 25.3328C51.2286 25.1925 50.9212 24.993 50.7397 24.7596C50.5582 24.5262 50.5107 24.2694 50.6033 24.0217C50.6958 23.7739 50.9242 23.5463 51.2595 23.3677C51.5949 23.1891 52.0222 23.0675 52.4873 23.0182C52.9525 22.9689 53.4346 22.9942 53.8728 23.0909C54.3109 23.1875 54.6855 23.3512 54.9489 23.5613C55.2124 23.7713 55.3531 24.0182 55.3531 24.2708C55.3531 24.6096 55.1004 24.9345 54.6507 25.174C54.201 25.4135 53.5911 25.5481 52.9551 25.5481Z" fill="white"/>
<path d="M27.7766 23.1307V19.1593C27.7766 18.2944 28.6758 16.8444 31.7969 16.5302C34.4459 16.2656 37.0686 16.2656 37.0686 16.2656C37.0686 16.2656 38.7922 16.9042 37.3684 16.9042C35.9446 16.9042 35.9821 17.8821 37.3684 17.8821C38.7547 17.8821 37.3684 18.8201 37.3684 18.8201L31.7857 22.1927L27.7766 23.1307Z" fill="white"/>
<defs>
<filter id="filter0_d_55_343" x="0.692138" y="0.557617" width="87.7341" height="51.8711" filterUnits="userSpaceOnUse" color-interpolation-filters="sRGB">
<feFlood flood-opacity="0" result="BackgroundImageFix"/>
<feColorMatrix in="SourceAlpha" type="matrix" values="0 0 0 0 0 0 0 0 0 0 0 0 0 0 0 0 0 0 127 0" result="hardAlpha"/>
<feOffset dy="3.5"/>
<feGaussianBlur stdDeviation="2.75"/>
<feColorMatrix type="matrix" values="0 0 0 0 0 0 0 0 0 0 0 0 0 0 0 0 0 0 0.02 0"/>
<feBlend mode="normal" in2="BackgroundImageFix" result="effect1_dropShadow_55_343"/>
<feBlend mode="normal" in="SourceGraphic" in2="effect1_dropShadow_55_343" result="shape"/>
</filter>
</defs>
</svg>
