<svg width="89" height="53" viewBox="0 0 89 53" fill="none" xmlns="http://www.w3.org/2000/svg">
<g filter="url(#filter0_d_55_323)">
<rect x="5.83545" y="2.55762" width="76.7342" height="40.8709" rx="6" fill="#0075FF"/>
</g>
<path d="M38.2107 30.656C39.535 30.656 40.6086 30.0842 40.6086 29.3788C40.6086 28.6734 39.535 28.1016 38.2107 28.1016C36.8863 28.1016 35.8127 28.6734 35.8127 29.3788C35.8127 30.0842 36.8863 30.656 38.2107 30.656Z" fill="white"/>
<path d="M54.9963 30.656C56.3207 30.656 57.3943 30.0842 57.3943 29.3788C57.3943 28.6734 56.3207 28.1016 54.9963 28.1016C53.672 28.1016 52.5984 28.6734 52.5984 29.3788C52.5984 30.0842 53.672 30.656 54.9963 30.656Z" fill="white"/>
<path d="M59.2526 17.5963C59.0842 17.4866 58.872 17.3982 58.6314 17.3376C58.3908 17.277 58.1279 17.2457 57.8618 17.2459H35.0551L34.5958 15.8577C34.5468 15.7099 34.4015 15.5759 34.1856 15.4794C33.9696 15.3829 33.6967 15.33 33.4148 15.3301H28.6189C28.3009 15.3301 27.9959 15.3974 27.7711 15.5171C27.5462 15.6369 27.4199 15.7993 27.4199 15.9687C27.4199 16.1381 27.5462 16.3005 27.7711 16.4203C27.9959 16.54 28.3009 16.6073 28.6189 16.6073H32.4091L35.8307 26.936C35.8797 27.0838 36.0249 27.2178 36.2409 27.3143C36.4569 27.4108 36.7298 27.4637 37.0117 27.4636H56.1952C56.5132 27.4636 56.8182 27.3964 57.043 27.2766C57.2679 27.1568 57.3942 26.9944 57.3942 26.825C57.3942 26.6557 57.2679 26.4932 57.043 26.3735C56.8182 26.2537 56.5132 26.1864 56.1952 26.1864H38.0173L37.5947 24.9092H55.7037C56.1195 24.9089 56.5223 24.8321 56.844 24.6918C57.1657 24.5515 57.3866 24.3563 57.4691 24.1393L59.6273 18.3918C59.6793 18.2527 59.6727 18.1092 59.6079 17.9716C59.5431 17.8341 59.4217 17.7059 59.2526 17.5963Z" fill="white"/>
<defs>
<filter id="filter0_d_55_323" x="0.335449" y="0.557617" width="87.7341" height="51.8711" filterUnits="userSpaceOnUse" color-interpolation-filters="sRGB">
<feFlood flood-opacity="0" result="BackgroundImageFix"/>
<feColorMatrix in="SourceAlpha" type="matrix" values="0 0 0 0 0 0 0 0 0 0 0 0 0 0 0 0 0 0 127 0" result="hardAlpha"/>
<feOffset dy="3.5"/>
<feGaussianBlur stdDeviation="2.75"/>
<feColorMatrix type="matrix" values="0 0 0 0 0 0 0 0 0 0 0 0 0 0 0 0 0 0 0.02 0"/>
<feBlend mode="normal" in2="BackgroundImageFix" result="effect1_dropShadow_55_323"/>
<feBlend mode="normal" in="SourceGraphic" in2="effect1_dropShadow_55_323" result="shape"/>
</filter>
</defs>
</svg>
