<svg width="89" height="53" viewBox="0 0 89 53" fill="none" xmlns="http://www.w3.org/2000/svg">
<g filter="url(#filter0_d_55_333)">
<rect x="6.01343" y="2.55762" width="76.7342" height="40.8709" rx="6" fill="#0075FF"/>
</g>
<path d="M60.9922 14.303C60.9786 14.2677 60.9463 14.2352 60.8991 14.2093C60.852 14.1834 60.792 14.1652 60.7262 14.1569C56.3372 13.5853 46.1962 15.6221 40.7019 18.5473C39.7219 19.065 38.8286 19.6273 38.0319 20.2276C36.3376 20.1478 34.6433 20.2145 33.1993 20.5497C29.1251 21.5049 27.9388 23.997 27.6084 25.0691C27.5896 25.1278 27.5967 25.188 27.629 25.2449C27.6614 25.3019 27.7181 25.3541 27.7947 25.3974C27.8713 25.4408 27.9658 25.474 28.0706 25.4946C28.1755 25.5152 28.2879 25.5226 28.399 25.5161L34.9416 25.1318C34.9463 25.3945 34.976 25.6569 35.0308 25.918C35.0637 26.0994 35.2148 26.2688 35.4579 26.397L37.9915 27.7433C38.2323 27.8726 38.5504 27.953 38.8907 27.9708C39.3782 27.9998 39.8682 28.0157 40.3587 28.0183L39.6408 31.4987C39.6288 31.5578 39.6427 31.6177 39.6815 31.6735C39.7202 31.7293 39.7826 31.7795 39.8639 31.8203C39.9452 31.8611 40.0432 31.8913 40.1501 31.9086C40.257 31.9258 40.3699 31.9297 40.4801 31.9198C42.4891 31.7481 47.1763 31.1163 48.9591 28.9462C49.5885 28.1771 49.7174 27.2791 49.572 26.381C50.7019 25.9567 51.7603 25.4807 52.7351 24.9585C58.2466 22.0377 62.0488 16.7568 60.9922 14.303ZM47.2363 21.4741C46.733 21.2062 46.3902 20.8649 46.2512 20.4932C46.1123 20.1215 46.1833 19.7363 46.4555 19.3861C46.7277 19.036 47.1887 18.7367 47.7803 18.5261C48.3718 18.3156 49.0674 18.2032 49.7789 18.2032C50.4904 18.2032 51.1859 18.3156 51.7774 18.5261C52.369 18.7367 52.83 19.036 53.1022 19.3861C53.3744 19.7363 53.4455 20.1215 53.3065 20.4932C53.1675 20.8649 52.8247 21.2062 52.3214 21.4741C51.9877 21.6521 51.5914 21.7933 51.1551 21.8897C50.7188 21.986 50.2512 22.0356 49.7789 22.0356C49.3066 22.0356 48.8389 21.986 48.4026 21.8897C47.9663 21.7933 47.57 21.6521 47.2363 21.4741Z" fill="white"/>
<path d="M37.8191 28.7192C37.4085 28.9383 36.7498 29.0237 35.957 29.0968C34.1758 29.2584 32.6029 28.4386 32.9228 27.4795C33.045 27.1159 33.4062 26.6062 33.631 26.4864C33.6801 26.4608 33.7128 26.4275 33.7245 26.3914C33.7361 26.3553 33.726 26.3181 33.6958 26.2852C33.6655 26.2523 33.6165 26.2253 33.5558 26.208C33.495 26.1908 33.4257 26.1841 33.3575 26.1891C32.3614 26.254 31.4347 26.4945 30.725 26.8724C28.9632 27.8116 28.7969 31.2964 28.7969 31.2964C28.7969 31.2964 35.3433 31.2078 37.105 30.2686C37.8166 29.8909 38.2688 29.3966 38.3886 28.8653C38.4164 28.6984 38.0349 28.599 37.8191 28.7192Z" fill="white"/>
<defs>
<filter id="filter0_d_55_333" x="0.513427" y="0.557617" width="87.7341" height="51.8711" filterUnits="userSpaceOnUse" color-interpolation-filters="sRGB">
<feFlood flood-opacity="0" result="BackgroundImageFix"/>
<feColorMatrix in="SourceAlpha" type="matrix" values="0 0 0 0 0 0 0 0 0 0 0 0 0 0 0 0 0 0 127 0" result="hardAlpha"/>
<feOffset dy="3.5"/>
<feGaussianBlur stdDeviation="2.75"/>
<feColorMatrix type="matrix" values="0 0 0 0 0 0 0 0 0 0 0 0 0 0 0 0 0 0 0.02 0"/>
<feBlend mode="normal" in2="BackgroundImageFix" result="effect1_dropShadow_55_333"/>
<feBlend mode="normal" in="SourceGraphic" in2="effect1_dropShadow_55_333" result="shape"/>
</filter>
</defs>
</svg>
