<svg width="143" height="137" viewBox="0 0 143 137" fill="none" xmlns="http://www.w3.org/2000/svg">
<path d="M71.5 12.8438C39.4674 12.8438 13.4062 37.8115 13.4062 68.5C13.4062 99.1885 39.4674 124.156 71.5 124.156C103.533 124.156 129.594 99.1885 129.594 68.5C129.594 37.8115 103.533 12.8438 71.5 12.8438ZM111.439 94.1875H98.8096C98.4183 94.1866 98.034 94.0873 97.6953 93.8995C97.3566 93.7117 97.0754 93.4419 96.8797 93.1172L92.3719 85.7106C92.0751 85.2264 91.9888 84.6498 92.1317 84.1052L96.282 68.0719C96.3653 67.7488 96.526 67.4488 96.7515 67.1957C96.9769 66.9425 97.2608 66.7432 97.5807 66.6136L105.429 63.4294C105.812 63.2736 106.234 63.2236 106.645 63.2851C107.057 63.3465 107.443 63.517 107.758 63.7772L119.385 73.3619C119.672 73.5983 119.891 73.9006 120.023 74.2403C120.154 74.5801 120.193 74.9463 120.137 75.3045C119.174 81.6336 116.866 87.7062 113.355 93.1466C113.157 93.4639 112.876 93.7265 112.541 93.909C112.205 94.0914 111.825 94.1873 111.439 94.1875ZM37.571 63.4508L45.4193 66.635C45.7392 66.7646 46.0231 66.9639 46.2485 67.2171C46.474 67.4702 46.6347 67.7702 46.718 68.0933L50.8683 84.1266C51.0112 84.6712 50.9249 85.2478 50.6281 85.732L46.1203 93.1172C45.9246 93.4419 45.6434 93.7117 45.3047 93.8995C44.966 94.0873 44.5817 94.1866 44.1904 94.1875H31.5605C31.1786 94.1877 30.8029 94.0941 30.4694 93.9157C30.136 93.7372 29.8558 93.4798 29.6557 93.168C26.1454 87.7276 23.8374 81.655 22.8744 75.3259C22.8178 74.9677 22.857 74.6015 22.9884 74.2617C23.1198 73.922 23.3391 73.6197 23.6257 73.3833L35.2529 63.7986C35.5676 63.5404 35.9511 63.3712 36.3604 63.3097C36.7698 63.2483 37.1889 63.2971 37.571 63.4508ZM109.334 40.1073L104.287 53.8554C104.185 54.1364 104.024 54.3941 103.813 54.612C103.602 54.8299 103.345 55.0033 103.061 55.1211L94.799 58.4738C94.4198 58.6275 94.0038 58.6778 93.5967 58.6193C93.1896 58.5607 92.8073 58.3956 92.492 58.142L76.7787 45.515C76.5276 45.316 76.325 45.0668 76.1851 44.7848C76.0452 44.5029 75.9713 44.195 75.9688 43.8828V34.8975C75.969 34.5455 76.0598 34.1989 76.2333 33.8885C76.4067 33.5781 76.6574 33.3135 76.963 33.1181L88.9253 25.4815C89.2375 25.2818 89.5972 25.1608 89.9711 25.1294C90.345 25.0981 90.7211 25.1575 91.0647 25.3022C97.9479 28.1783 104.056 32.5195 108.926 37.9961C109.182 38.2824 109.354 38.6284 109.426 38.9992C109.498 39.3699 109.466 39.7522 109.334 40.1073ZM54.0719 25.4815L66.037 33.1181C66.3426 33.3135 66.5933 33.5781 66.7667 33.8885C66.9402 34.1989 67.031 34.5455 67.0312 34.8975V43.8828C67.0312 44.1955 66.9597 44.5044 66.8217 44.7878C66.6837 45.0712 66.4826 45.3222 66.2325 45.5231L50.5192 58.1501C50.2039 58.4036 49.8216 58.5688 49.4145 58.6273C49.0074 58.6859 48.5914 58.6355 48.2122 58.4819L39.9395 55.1211C39.6528 55.0048 39.3946 54.8324 39.1815 54.6149C38.9684 54.3974 38.8052 54.1396 38.7022 53.8581L33.6553 40.11C33.5241 39.7535 33.4938 39.3702 33.5674 38.9989C33.641 38.6277 33.8158 38.2817 34.0742 37.9961C38.9466 32.514 45.0599 28.1689 51.9492 25.2915C52.2915 25.1512 52.665 25.0951 53.0357 25.1283C53.4064 25.1615 53.7626 25.2829 54.0719 25.4815ZM58.9065 113.103L53.396 99.8066C53.27 99.5044 53.2176 99.1786 53.2427 98.854C53.2679 98.5295 53.37 98.2147 53.5412 97.9336L57.7781 90.9766C57.9738 90.6519 58.2551 90.3821 58.5938 90.1943C58.9325 90.0064 59.3167 89.9071 59.7081 89.9062H83.2919C83.6833 89.9071 84.0675 90.0064 84.4062 90.1943C84.7449 90.3821 85.0262 90.6519 85.2219 90.9766L89.4616 97.9336C89.6333 98.2145 89.7358 98.5292 89.7615 98.8537C89.7871 99.1783 89.7352 99.5042 89.6096 99.8066L84.1382 113.097C84.0044 113.422 83.7896 113.711 83.5126 113.938C83.2356 114.165 82.9048 114.324 82.549 114.4C75.2886 115.997 67.745 115.997 60.4845 114.4C60.1314 114.323 59.8032 114.164 59.5283 113.938C59.2534 113.712 59.04 113.425 58.9065 113.103Z" fill="white"/>
</svg>
