<svg width="824" height="303" viewBox="0 0 824 303" fill="none" xmlns="http://www.w3.org/2000/svg">
<path d="M710.2 206.183C752.821 190.405 802.758 212.757 822.399 225.905V302.801H1.40051V1.94141C42.6469 10.9668 69.1624 85.1757 75.7913 132.308C81.1978 170.75 81.4381 198.16 110.163 206.183C139.042 214.248 173.281 188.583 202.252 153.819C225.429 126.007 260.03 142.231 274.433 153.819C299.967 173.987 342.027 187.664 375.809 167.073C418.038 141.334 441.362 148.688 494.638 167.073C547.915 185.458 542.513 197.158 586.951 225.905C631.39 254.653 656.923 225.905 710.2 206.183Z" fill="url(#paint0_linear_55_178)"/>
<path d="M822.399 225.905C802.758 212.757 752.821 190.405 710.2 206.183C656.923 225.905 631.39 254.653 586.951 225.905C542.513 197.158 547.915 185.458 494.638 167.073C441.362 148.688 418.038 141.334 375.809 167.073C342.027 187.664 299.967 173.987 274.433 153.819C260.03 142.231 225.429 126.007 202.252 153.819C173.281 188.583 139.042 214.248 110.163 206.183C81.4381 198.16 81.1978 170.75 75.7913 132.308C69.1624 85.1757 42.6469 10.9668 1.40053 1.94141" stroke="#2CD9FF" stroke-width="3"/>
<path d="M112.738 173.55C70.4442 157.784 20.8905 180.119 1.40039 193.257V302.499H821.422V43.9913C780.493 53.0101 745.724 50.6713 739.146 97.7694C733.781 136.183 733.542 163.573 705.038 171.59C676.381 179.649 659.723 132.508 630.976 97.7694C607.977 69.9783 569.244 106.142 554.951 117.722C529.614 137.875 472.016 93.9037 447.054 59.3392C411.411 9.98504 364.539 5.47095 329.138 59.3392C293.738 113.207 258.625 69.043 214.528 97.7694C170.432 126.496 165.605 193.257 112.738 173.55Z" fill="url(#paint1_linear_55_178)"/>
<path d="M1.40039 193.478C20.8905 180.323 70.4442 157.959 112.738 173.746C165.605 193.478 170.432 126.631 214.528 97.8682C258.625 69.105 293.738 113.326 329.138 59.3888C364.539 5.45156 411.411 9.97144 447.054 59.3888C472.015 93.9975 529.614 138.025 554.951 117.846C569.244 106.251 607.977 70.0415 630.976 97.8682C659.723 132.652 676.381 179.853 705.038 171.783C733.542 163.756 733.781 136.331 739.146 97.8682C745.724 50.7098 780.493 53.0516 821.422 44.0212" stroke="#0075FF" stroke-width="3"/>
<defs>
<linearGradient id="paint0_linear_55_178" x1="411.9" y1="1.94141" x2="411.9" y2="302.801" gradientUnits="userSpaceOnUse">
<stop stop-color="#2CD9FF" stop-opacity="0.36"/>
<stop offset="1" stop-color="#2CD9FF" stop-opacity="0"/>
</linearGradient>
<linearGradient id="paint1_linear_55_178" x1="411.411" y1="20.6123" x2="411.411" y2="302.499" gradientUnits="userSpaceOnUse">
<stop stop-color="#0075FF"/>
<stop offset="1" stop-color="#0075FF" stop-opacity="0"/>
</linearGradient>
</defs>
</svg>
