<svg width="1197" height="319" viewBox="0 0 1197 319" fill="none" xmlns="http://www.w3.org/2000/svg">
<path d="M1032.18 217.148C1094.19 200.535 1166.85 224.07 1195.43 237.915V318.883H0.879883V2.09082C60.8929 11.5942 99.4727 89.7329 109.118 139.362C116.984 179.839 117.334 208.701 159.129 217.148C201.147 225.641 250.965 198.617 293.117 162.011C326.839 132.727 377.183 149.81 398.14 162.011C435.291 183.247 496.488 197.649 545.641 175.967C607.083 148.865 641.019 156.608 718.536 175.967C796.053 195.326 788.194 207.645 852.851 237.915C917.508 268.185 954.659 237.915 1032.18 217.148Z" fill="url(#paint0_linear_55_1135)"/>
<path d="M1195.43 237.915C1166.85 224.07 1094.19 200.535 1032.18 217.148C954.659 237.915 917.508 268.185 852.851 237.915C788.194 207.645 796.053 195.326 718.536 175.967C641.019 156.608 607.083 148.865 545.641 175.967C496.488 197.649 435.291 183.247 398.14 162.011C377.183 149.81 326.838 132.727 293.117 162.011C250.965 198.617 201.147 225.641 159.129 217.148C117.334 208.701 116.984 179.839 109.118 139.362C99.4727 89.7329 60.8929 11.5942 0.879862 2.09082" stroke="#2CD9FF" stroke-width="3"/>
<path d="M162.875 182.788C101.338 166.187 29.2378 189.706 0.879883 203.54V318.566H1194V46.369C1134.45 55.8654 1083.86 53.4028 1074.29 102.995C1066.49 143.443 1066.14 172.284 1024.67 180.725C982.971 189.211 958.734 139.574 916.906 102.995C883.443 73.7322 827.087 111.811 806.291 124.004C769.426 145.224 685.62 98.9246 649.301 62.5297C597.442 10.5619 529.242 5.80876 477.736 62.5297C426.229 119.251 375.139 72.7474 310.979 102.995C246.819 133.243 239.796 203.54 162.875 182.788Z" fill="url(#paint1_linear_55_1135)"/>
<path d="M0.879883 203.773C29.2378 189.921 101.338 166.372 162.875 182.995C239.796 203.773 246.819 133.386 310.979 103.099C375.139 72.8126 426.229 119.375 477.736 62.5819C529.242 5.78835 597.442 10.5476 649.301 62.5819C685.62 99.0234 769.426 145.382 806.291 124.135C827.087 111.926 883.443 73.7987 916.906 103.099C958.734 139.725 982.971 189.425 1024.67 180.928C1066.14 172.476 1066.49 143.599 1074.29 103.099C1083.86 53.4433 1134.45 55.9091 1194 46.4005" stroke="#0075FF" stroke-width="3"/>
<defs>
<linearGradient id="paint0_linear_55_1135" x1="598.153" y1="2.09082" x2="598.153" y2="318.883" gradientUnits="userSpaceOnUse">
<stop stop-color="#2CD9FF" stop-opacity="0.36"/>
<stop offset="1" stop-color="#2CD9FF" stop-opacity="0"/>
</linearGradient>
<linearGradient id="paint1_linear_55_1135" x1="597.442" y1="21.752" x2="597.442" y2="318.566" gradientUnits="userSpaceOnUse">
<stop stop-color="#0075FF"/>
<stop offset="1" stop-color="#0075FF" stop-opacity="0"/>
</linearGradient>
</defs>
</svg>
