<svg width="130" height="130" viewBox="0 0 130 130" fill="none" xmlns="http://www.w3.org/2000/svg">
<path d="M77.6751 96.2538L85.3126 88.6163L108.333 111.475L100.533 119.166L77.6751 96.2538ZM100.208 10.833C105.237 10.833 110.059 12.8304 113.614 16.3858C117.169 19.9412 119.167 24.7633 119.167 29.7913C119.167 34.8194 117.169 39.6415 113.614 43.1969C110.059 46.7523 105.237 48.7497 100.208 48.7497C95.1804 48.7497 90.3583 46.7523 86.8029 43.1969C83.2475 39.6415 81.2501 34.8194 81.2501 29.7913C81.2501 24.7633 83.2475 19.9412 86.8029 16.3858C90.3583 12.8304 95.1804 10.833 100.208 10.833ZM12.1334 38.5122L27.4626 23.183C28.4959 22.1674 29.8867 21.5983 31.3355 21.5983C32.7843 21.5983 34.1752 22.1674 35.2084 23.183L81.0876 69.1705C83.2001 71.283 83.2001 74.6955 81.0876 76.808L65.7584 92.083C65.2587 92.5973 64.6608 93.0062 64.0002 93.2854C63.3396 93.5646 62.6298 93.7084 61.9126 93.7084C61.1955 93.7084 60.4856 93.5646 59.825 93.2854C59.1644 93.0062 58.5666 92.5973 58.0668 92.083L12.1334 46.2038C10.0209 44.0372 10.0209 40.6247 12.1334 38.5122Z" fill="white"/>
</svg>
