<svg width="120" height="120" viewBox="0 0 120 120" fill="none" xmlns="http://www.w3.org/2000/svg">
<path d="M90.0001 74.9997C95.3044 74.9997 100.391 77.1069 104.142 80.8576C107.893 84.6083 110 89.6954 110 94.9997C110 100.304 107.893 105.391 104.142 109.142C100.391 112.893 95.3044 115 90.0001 115C84.6957 115 79.6086 112.893 75.8579 109.142C72.1072 105.391 70.0001 100.304 70.0001 94.9997C70.0001 89.6954 72.1072 84.6083 75.8579 80.8576C79.6086 77.1069 84.6957 74.9997 90.0001 74.9997ZM90.0001 84.9997C87.3479 84.9997 84.8044 86.0533 82.929 87.9287C81.0536 89.804 80.0001 92.3476 80.0001 94.9997C80.0001 97.6519 81.0536 100.195 82.929 102.071C84.8044 103.946 87.3479 105 90.0001 105C92.6522 105 95.1958 103.946 97.0711 102.071C98.9465 100.195 100 97.6519 100 94.9997C100 92.3476 98.9465 89.804 97.0711 87.9287C95.1958 86.0533 92.6522 84.9997 90.0001 84.9997ZM30.25 72.6997C30.25 72.6997 37.3 65.5997 37.35 51.4997C35.55 40.5497 39.85 27.6997 49.7 17.8997C64.35 3.24974 85.7001 0.849739 97.5001 12.4997C109.15 24.2997 106.75 45.6497 92.1001 60.2997C82.3 70.1497 69.45 74.4497 58.5 72.6497C44.4 72.6997 37.3 79.7497 37.3 79.7497L16.1 100.95L9.05005 93.8997L30.25 72.6997ZM90.3501 19.6497C82.5001 11.8497 67.5001 14.1997 56.7501 24.9997C46.0501 35.6997 43.65 50.7497 51.45 58.5497C59.3 66.3497 74.3 63.9497 85.0001 53.2497C95.8 42.4997 98.15 27.4997 90.3501 19.6497Z" fill="white"/>
</svg>
